[Header]
FileType HTR
DataType HTRS
FileVersion 1
NumSegments 64
NumFrames 3
DataFrameRate 24
EulerRotationOrder ZYX
CalibrationUnits mm
RotationUnits Degrees
GlobalAxisofGravity Y
BoneLengthAxis Y
ScaleFactor 1.0
[SegmentNames&Hierarchy]
Hips	GLOBAL
Spine	Hips
Spine1	Spine
Spine2	Spine1
Neck	Spine2
Head	Neck
LeftEye	Head
RightEye	Head
LeftShoulder	Spine2
LeftArm	LeftShoulder
LeftForeArm	LeftArm
LeftHand	LeftForeArm
LeftHandThumb1	LeftHand
LeftHandThumb2	LeftHandThumb1
LeftHandThumb3	LeftHandThumb2
LeftHandThumb4	LeftHandThumb3
LeftHandIndex1	LeftHand
LeftHandIndex2	LeftHandIndex1
LeftHandIndex3	LeftHandIndex2
LeftHandIndex4	LeftHandIndex3
LeftHandMiddle1	LeftHand
LeftHandMiddle2	LeftHandMiddle1
LeftHandMiddle3	LeftHandMiddle2
LeftHandMiddle4	LeftHandMiddle3
LeftHandRing1	LeftHand
LeftHandRing2	LeftHandRing1
LeftHandRing3	LeftHandRing2
LeftHandRing4	LeftHandRing3
LeftHandPinky1	LeftHand
LeftHandPinky2	LeftHandPinky1
LeftHandPinky3	LeftHandPinky2
LeftHandPinky4	LeftHandPinky3
RightShoulder	Spine2
RightArm	RightShoulder
RightForeArm	RightArm
RightHand	RightForeArm
RightHandPinky1	RightHand
RightHandPinky2	RightHandPinky1
RightHandPinky3	RightHandPinky2
RightHandPinky4	RightHandPinky3
RightHandRing1	RightHand
RightHandRing2	RightHandRing1
RightHandRing3	RightHandRing2
RightHandRing4	RightHandRing3
RightHandMiddle1	RightHand
RightHandMiddle2	RightHandMiddle1
RightHandMiddle3	RightHandMiddle2
RightHandMiddle4	RightHandMiddle3
RightHandIndex1	RightHand
RightHandIndex2	RightHandIndex1
RightHandIndex3	RightHandIndex2
RightHandIndex4	RightHandIndex3
RightHandThumb1	RightHand
RightHandThumb2	RightHandThumb1
RightHandThumb3	RightHandThumb2
RightHandThumb4	RightHandThumb3
LeftUpLeg	Hips
LeftLeg	LeftUpLeg
LeftFoot	LeftLeg
LeftToeBase	LeftFoot
RightUpLeg	Hips
RightLeg	RightUpLeg
RightFoot	RightLeg
RightToeBase	RightFoot
[BasePosition]
Hips	0	0	0	0	0	0	1
Spine	0	0	0	0	0	0	1
Spine1	0	0	0	0	0	0	1
Spine2	0	0	0	0	0	0	1
Neck	0	0	0	0	0	0	1
Head	0	0	0	0	0	0	1
LeftEye	0	0	0	0	0	0	1
RightEye	0	0	0	0	0	0	1
LeftShoulder	0	0	0	0	0	0	1
LeftArm	0	0	0	0	0	0	1
LeftForeArm	0	0	0	0	0	0	1
LeftHand	0	0	0	0	0	0	1
LeftHandThumb1	0	0	0	0	0	0	1
LeftHandThumb2	0	0	0	0	0	0	1
LeftHandThumb3	0	0	0	0	0	0	1
LeftHandThumb4	0	0	0	0	0	0	1
LeftHandIndex1	0	0	0	0	0	0	1
LeftHandIndex2	0	0	0	0	0	0	1
LeftHandIndex3	0	0	0	0	0	0	1
LeftHandIndex4	0	0	0	0	0	0	1
LeftHandMiddle1	0	0	0	0	0	0	1
LeftHandMiddle2	0	0	0	0	0	0	1
LeftHandMiddle3	0	0	0	0	0	0	1
LeftHandMiddle4	0	0	0	0	0	0	1
LeftHandRing1	0	0	0	0	0	0	1
LeftHandRing2	0	0	0	0	0	0	1
LeftHandRing3	0	0	0	0	0	0	1
LeftHandRing4	0	0	0	0	0	0	1
LeftHandPinky1	0	0	0	0	0	0	1
LeftHandPinky2	0	0	0	0	0	0	1
LeftHandPinky3	0	0	0	0	0	0	1
LeftHandPinky4	0	0	0	0	0	0	1
RightShoulder	0	0	0	0	0	0	1
RightArm	0	0	0	0	0	0	1
RightForeArm	0	0	0	0	0	0	1
RightHand	0	0	0	0	0	0	1
RightHandPinky1	0	0	0	0	0	0	1
RightHandPinky2	0	0	0	0	0	0	1
RightHandPinky3	0	0	0	0	0	0	1
RightHandPinky4	0	0	0	0	0	0	1
RightHandRing1	0	0	0	0	0	0	1
RightHandRing2	0	0	0	0	0	0	1
RightHandRing3	0	0	0	0	0	0	1
RightHandRing4	0	0	0	0	0	0	1
RightHandMiddle1	0	0	0	0	0	0	1
RightHandMiddle2	0	0	0	0	0	0	1
RightHandMiddle3	0	0	0	0	0	0	1
RightHandMiddle4	0	0	0	0	0	0	1
RightHandIndex1	0	0	0	0	0	0	1
RightHandIndex2	0	0	0	0	0	0	1
RightHandIndex3	0	0	0	0	0	0	1
RightHandIndex4	0	0	0	0	0	0	1
RightHandThumb1	0	0	0	0	0	0	1
RightHandThumb2	0	0	0	0	0	0	1
RightHandThumb3	0	0	0	0	0	0	1
RightHandThumb4	0	0	0	0	0	0	1
LeftUpLeg	0	0	0	0	0	0	1
LeftLeg	0	0	0	0	0	0	1
LeftFoot	0	0	0	0	0	0	1
LeftToeBase	0	0	0	0	0	0	1
RightUpLeg	0	0	0	0	0	0	1
RightLeg	0	0	0	0	0	0	1
RightFoot	0	0	0	0	0	0	1
RightToeBase	0	0	0	0	0	0	1
[Hips]
17	100.5628967	844.2243042	-33.65942383	17.40844154	-28.9688797	0.7008763552	1.0
18	91.91786194	916.4029541	-18.08768845	9.590442657	-27.7219162	5.012578964	1.0
19	76.37776947	1005.592529	-8.037014961	4.574002266	-20.9867382	5.863646984	1.0
[Spine]
17	0	101.8159943	1.315000057	7.983298779	-0.6937922835	2.051553726	1.0
18	0	101.8159943	1.315000057	6.872402668	2.165328264	0.6502978802	1.0
19	0	101.8159943	1.315000057	6.078455925	3.680385113	-0.7973869443	1.0
[Spine1]
17	0	100.8349991	-10.00800037	3.134360313	-0.5492486358	1.836147189	1.0
18	0	100.8349991	-10.00800037	2.773846626	0.4439103901	1.607343197	1.0
19	0	100.8349991	-10.00800037	2.325327396	0.9601306915	1.138636708	1.0
[Spine2]
17	0	91	-13.73399925	3.107193947	-0.5295808911	1.857798219	1.0
18	0	91	-13.73399925	2.740018845	0.4869350493	1.63540554	1.0
19	0	91	-13.73399925	2.286377907	1.01357317	1.158736348	1.0
[Neck]
17	0	166.7169952	-25.16200066	-2.749524593	3.003102303	0.8793814182	1.0
18	0	166.7169952	-25.16200066	2.692708969	1.29409194	-1.142472148	1.0
19	0	166.7169952	-25.16200066	8.166578293	-0.1762074381	-1.931575179	1.0
[Head]
17	0	96.17900085	16.84999847	-33.26079559	13.09607506	-13.73063087	1.0
18	0	96.17900085	16.84999847	-24.68612099	6.805906296	-11.23342037	1.0
19	0	96.17900085	16.84999847	-16.79550934	0.09107819945	-5.569050312	1.0
[LeftEye]
17	30.6760006	64.09500122	92.83599854	0	0	0	1.0
18	30.6760006	64.09500122	92.83599854	0	0	0	1.0
19	30.6760006	64.09500122	92.83599854	0	0	0	1.0
[RightEye]
17	-30.6760006	64.09500122	92.83499908	0	0	0	1.0
18	-30.6760006	64.09500122	92.83499908	0	0	0	1.0
19	-30.6760006	64.09500122	92.83499908	0	0	0	1.0
[LeftShoulder]
17	45.70400238	109.4599991	-26.28000069	6.010723591	-21.79556465	-11.99441528	1.0
18	45.70400238	109.4599991	-26.28000069	5.666117668	-24.08114624	-10.21407986	1.0
19	45.70400238	109.4599991	-26.28000069	5.454333782	-28.75735283	-7.032598972	1.0
[LeftArm]
17	105.923996	-5.24600029	-22.32099915	23.57406807	-21.13027	-38.48889542	1.0
18	105.923996	-5.24600029	-22.32099915	31.16055298	-7.275141239	-36.20849609	1.0
19	105.923996	-5.24600029	-22.32099915	39.86864471	-1.996944666	-25.77280617	1.0
[LeftForeArm]
17	278.414978	-0.0009999999311	0	9.96748895e-07	-28.97594261	-0.0002070345072	1.0
18	278.414978	-0.0009999999311	0	1.148888987e-05	-21.6582737	-0.0002096946555	1.0
19	278.414978	-0.0009999999311	0	-7.238489161e-06	-20.16776848	-0.0002046135196	1.0
[LeftHand]
17	283.2879944	0	0	-50.12039948	-23.60969543	4.422634125	1.0
18	283.2879944	0	0	-56.51922989	-23.68638992	-6.950593948	1.0
19	283.2879944	0	0	-55.57688522	-22.81107521	-16.23779678	1.0
[LeftHandThumb1]
17	24.6609993	-15.75	26.8239994	-0.489752382	2.19946146	4.817907333	1.0
18	24.6609993	-15.75	26.8239994	-0.494114548	2.188268661	4.814136982	1.0
19	24.6609993	-15.75	26.8239994	-0.4825367928	2.217779398	4.823986053	1.0
[LeftHandThumb2]
17	32.29800034	-18.64699936	18.64699936	2.92376709	24.46520805	13.57656288	1.0
18	32.29800034	-18.64699936	18.64699936	3.033051491	22.9437809	16.34932518	1.0
19	32.29800034	-18.64699936	18.64699936	2.540861607	20.96536446	14.95820808	1.0
[LeftHandThumb3]
17	26.52600098	-15.31499958	15.31499958	-10.74468899	18.41539001	12.12819386	1.0
18	26.52600098	-15.31499958	15.31499958	-11.09429073	17.5419693	11.04352093	1.0
19	26.52600098	-15.31499958	15.31499958	-10.66307068	19.20214653	12.59048653	1.0
[LeftHandThumb4]
17	19.54599953	-11.28499985	11.28499985	0	0	0	1.0
18	19.54599953	-11.28499985	11.28499985	0	0	0	1.0
19	19.54599953	-11.28499985	11.28499985	0	0	0	1.0
[LeftHandIndex1]
17	91.09299469	-5.170999527	22.60099792	0.5125700831	0.3509418666	-9.855826378	1.0
18	91.09299469	-5.170999527	22.60099792	1.062735558	-0.6449810863	0.6386790872	1.0
19	91.09299469	-5.170999527	22.60099792	1.336814642	-1.082526684	6.770036221	1.0
[LeftHandIndex2]
17	36.76399994	0	0	-0.2562830448	1.711595654	-17.03153419	1.0
18	36.76399994	0	0	-0.2494671196	1.689160585	-16.80150032	1.0
19	36.76399994	0	0	-0.2603751421	1.72484684	-17.16770172	1.0
[LeftHandIndex3]
17	28.83100128	0	0	-0.05262649432	0.7824970484	-7.693711281	1.0
18	28.83100128	0	0	-0.04953203723	0.7592562437	-7.463798046	1.0
19	28.83100128	0	0	-0.05449133739	0.7962641716	-7.829770088	1.0
[LeftHandIndex4]
17	23.92700005	0	0	0	0	0	1.0
18	23.92700005	0	0	0	0	0	1.0
19	23.92700005	0	0	0	0	0	1.0
[LeftHandMiddle1]
17	95.33399963	0	0	-0.5163298845	-1.554622173	-11.68597507	1.0
18	95.33399963	0	0	0.09294782579	-1.84728539	0.3903759718	1.0
19	95.33399963	0	0	0.2527938187	-1.662441611	4.817773342	1.0
[LeftHandMiddle2]
17	36.98199844	0	0	-0.2520288825	1.697647929	-16.88849068	1.0
18	36.98199844	0	0	-0.2522598207	1.698339462	-16.89568329	1.0
19	36.98199844	0	0	-0.260823369	1.726305008	-17.1826458	1.0
[LeftHandMiddle3]
17	29.50900078	0	0	-0.2849256396	1.802342296	-17.96518707	1.0
18	29.50900078	0	0	-0.2843557298	1.800581098	-17.94697952	1.0
19	29.50900078	0	0	-0.2929317057	1.826844454	-18.21799469	1.0
[LeftHandMiddle4]
17	28.3390007	0	0	0	0	0	1.0
18	28.3390007	0	0	0	0	0	1.0
19	28.3390007	0	0	0	0	0	1.0
[LeftHandRing1]
17	91.04499817	-0.4390000105	-18.65100098	-0.789794147	1.759594202	-15.6670742	1.0
18	91.04499817	-0.4390000105	-18.65100098	-0.2402998805	1.884606004	-6.491454601	1.0
19	91.04499817	-0.4390000105	-18.65100098	-0.1633918434	1.57152617	-5.016490459	1.0
[LeftHandRing2]
17	31.54000092	0	0	-0.520868063	2.411168575	-24.37682724	1.0
18	31.54000092	0	0	-0.4551771283	2.260706425	-22.76498795	1.0
19	31.54000092	0	0	-0.418497026	2.171313286	-21.81654167	1.0
[LeftHandRing3]
17	29.37700081	0	0	-0.4006341994	2.126149178	-21.33997726	1.0
18	29.37700081	0	0	-0.342654407	1.971439004	-19.71847343	1.0
19	29.37700081	0	0	-0.3108423948	1.880355954	-18.77169609	1.0
[LeftHandRing4]
17	26.47500038	0	0	0	0	0	1.0
18	26.47500038	0	0	0	0	0	1.0
19	26.47500038	0	0	0	0	0	1.0
[LeftHandPinky1]
17	80.77799988	-4.887000084	-38.06099701	-2.243889093	3.482773542	-31.05837059	1.0
18	80.77799988	-4.887000084	-38.06099701	-1.314771295	5.085852623	-22.85387611	1.0
19	80.77799988	-4.887000084	-38.06099701	-1.284545183	4.1708498	-21.35918999	1.0
[LeftHandPinky2]
17	36	0	0	-0.4117770195	2.154469967	-21.63863945	1.0
18	36	0	0	-0.3387371004	1.960471511	-19.60430336	1.0
19	36	0	0	-0.3042085767	1.860745311	-18.56862068	1.0
[LeftHandPinky3]
17	21.14200211	0	0	-0.3782331049	2.067933559	-20.72781372	1.0
18	21.14200211	0	0	-0.3088494837	1.874484897	-18.71089172	1.0
19	21.14200211	0	0	-0.275647372	1.773487091	-17.66773796	1.0
[LeftHandPinky4]
17	19.75699997	0	0	0	0	0	1.0
18	19.75699997	0	0	0	0	0	1.0
19	19.75699997	0	0	0	0	0	1.0
[RightShoulder]
17	-45.70000076	109.4620056	-26.28000069	5.045172691	18.98007202	15.59525681	1.0
18	-45.70000076	109.4620056	-26.28000069	2.753773212	18.06642151	3.5044415	1.0
19	-45.70000076	109.4620056	-26.28000069	0.8649309874	14.52397156	-9.978965759	1.0
[RightArm]
17	-105.9280014	-5.248000145	-22.32099915	7.880568504	46.87241745	14.67546082	1.0
18	-105.9280014	-5.248000145	-22.32099915	-2.448767662	55.09672165	11.79950523	1.0
19	-105.9280014	-5.248000145	-22.32099915	-17.6968689	56.0230217	12.27681637	1.0
[RightForeArm]
17	-278.414978	0	0	-1.145574242e-05	47.54458237	-5.077424248e-06	1.0
18	-278.414978	0	0	1.309434765e-06	55.97592163	-6.506741556e-06	1.0
19	-278.414978	0	0	-4.070090199e-06	63.75241852	2.146064389e-06	1.0
[RightHand]
17	-283.2879944	0	0.0009999999311	-1.657090902	-1.151328802	21.35111046	1.0
18	-283.2879944	0	0.0009999999311	-2.131577253	1.852613211	31.91990089	1.0
19	-283.2879944	0	0.0009999999311	-4.743737221	1.964197397	37.34196091	1.0
[RightHandPinky1]
17	-80.76699829	-4.885000229	-38.06000137	-1.57874918	-4.622277737	25.75676918	1.0
18	-80.76699829	-4.885000229	-38.06000137	-1.226730466	-6.585377693	22.90309715	1.0
19	-80.76699829	-4.885000229	-38.06000137	-1.243493915	-7.98537302	23.84939575	1.0
[RightHandPinky2]
17	-36	0	0.0009999999311	-0.2698276043	-1.559071779	19.65580368	1.0
18	-36	0	0.0009999999311	-0.2602382898	-1.531977773	19.30076027	1.0
19	-36	0	0.0009999999311	-0.2915207744	-1.618615389	20.43851662	1.0
[RightHandPinky3]
17	-21.14200211	0	0	-0.2464088351	-1.491816878	18.75620651	1.0
18	-21.14200211	0	0	-0.2378200442	-1.466331601	18.42385483	1.0
19	-21.14200211	0	0	-0.268222183	-1.554600835	19.57756615	1.0
[RightHandPinky4]
17	-19.75699997	0	0	0	0	0	1.0
18	-19.75699997	0	0	0	0	0	1.0
19	-19.75699997	0	0	0	0	0	1.0
[RightHandRing1]
17	-91.03599548	-0.4390000105	-18.65100098	-0.8918147087	-2.351350069	18.10833168	1.0
18	-91.03599548	-0.4390000105	-18.65100098	-0.9402900338	-1.754180312	18.88553429	1.0
19	-91.03599548	-0.4390000105	-18.65100098	-0.9451056123	-1.744679451	18.96328354	1.0
[RightHandRing2]
17	-31.54000092	0	0	-0.4162870646	-1.920555711	24.45715904	1.0
18	-31.54000092	0	0	-0.3811253905	-1.841363072	23.38636017	1.0
19	-31.54000092	0	0	-0.3672091663	-1.808834553	22.94918251	1.0
[RightHandRing3]
17	-29.37700081	0	0	-0.3200292289	-1.693186164	21.40538025	1.0
18	-29.37700081	0	0	-0.2892144918	-1.612395406	20.33690262	1.0
19	-29.37700081	0	0	-0.2770352364	-1.579156876	19.89981651	1.0
[RightHandRing4]
17	-26.47500038	0	0	0	0	0	1.0
18	-26.47500038	0	0	0	0	0	1.0
19	-26.47500038	0	0	0	0	0	1.0
[RightHandMiddle1]
17	-95.32500458	0	0	-0.6871156096	-2.063974619	14.77030945	1.0
18	-95.32500458	0	0	-0.6994313002	-2.144171	14.97533989	1.0
19	-95.32500458	0	0	-0.6363232136	-2.223531723	13.90049076	1.0
[RightHandMiddle2]
17	-36.98199844	0	0	-0.6151343584	-2.308084965	29.84338951	1.0
18	-36.98199844	0	0	-0.6255355477	-2.326083422	30.10047722	1.0
19	-36.98199844	0	0	-0.6058996916	-2.291918993	29.61324692	1.0
[RightHandMiddle3]
17	-29.50900078	0	0	-0.6564474106	-2.380563974	30.85352707	1.0
18	-29.50900078	0	0	-0.6671816111	-2.398413181	31.11096954	1.0
19	-29.50900078	0	0	-0.6468924284	-2.364524841	30.62268639	1.0
[RightHandMiddle4]
17	-28.3390007	0	0.0009999999311	0	0	0	1.0
18	-28.3390007	0	0.0009999999311	0	0	0	1.0
19	-28.3390007	0	0.0009999999311	0	0	0	1.0
[RightHandIndex1]
17	-91.08300018	-5.167999744	22.60099792	-0.8404660821	2.754355192	17.65241432	1.0
18	-91.08300018	-5.167999744	22.60099792	-0.6128602624	4.20631218	14.09334564	1.0
19	-91.08300018	-5.167999744	22.60099792	-0.4240007699	4.986037731	10.86641598	1.0
[RightHandIndex2]
17	-36.76399994	0	0	-0.4244255722	-1.938372016	24.69903755	1.0
18	-36.76399994	0	0	-0.3856905401	-1.851862073	23.52775192	1.0
19	-36.76399994	0	0	-0.3473447263	-1.761182189	22.31113815	1.0
[RightHandIndex3]
17	-28.83100128	0	0	-0.1671588272	-1.234169245	15.4258194	1.0
18	-28.83100128	0	0	-0.1446189582	-1.149438262	14.34293079	1.0
19	-28.83100128	0	0	-0.1220245585	-1.057119489	13.16903019	1.0
[RightHandIndex4]
17	-23.92700005	0	0	0	0	0	1.0
18	-23.92700005	0	0	0	0	0	1.0
19	-23.92700005	0	0	0	0	0	1.0
[RightHandThumb1]
17	-24.64799881	-15.72700024	26.82600021	-1.663284421	-0.2751871347	-4.21680975	1.0
18	-24.64799881	-15.72700024	26.82600021	-1.649395227	-0.3155418932	-4.229879379	1.0
19	-24.64799881	-15.72700024	26.82600021	-1.660820603	-0.282076925	-4.219039917	1.0
[RightHandThumb2]
17	-32.29800034	-18.64699936	18.64699936	18.24020767	-10.75189686	-29.2680912	1.0
18	-32.29800034	-18.64699936	18.64699936	18.43623543	-13.22560215	-24.77186775	1.0
19	-32.29800034	-18.64699936	18.64699936	18.41539955	-13.59359455	-23.81806183	1.0
[RightHandThumb3]
17	-26.52600098	-15.31399918	15.31399918	-20.3217659	4.125213146	-27.95165062	1.0
18	-26.52600098	-15.31399918	15.31399918	-17.87759399	-2.13598752	-28.12674522	1.0
19	-26.52600098	-15.31399918	15.31399918	-17.05558586	-4.337146282	-28.47047615	1.0
[RightHandThumb4]
17	-19.54599953	-11.28499985	11.28499985	0	0	0	1.0
18	-19.54599953	-11.28499985	11.28499985	0	0	0	1.0
19	-19.54599953	-11.28499985	11.28499985	0	0	0	1.0
[LeftUpLeg]
17	82.07800293	-67.51699829	-15.99599934	-68.25136566	22.25603104	-4.301760197	1.0
18	82.07800293	-67.51699829	-15.99599934	-60.83282471	19.54366493	-3.138140678	1.0
19	82.07800293	-67.51699829	-15.99599934	-58.75368118	14.73138809	-0.9798473716	1.0
[LeftLeg]
17	0	-443.7049866	2.845999956	77.25312805	5.36733675	8.961368561	1.0
18	0	-443.7049866	2.845999956	73.2858963	3.656110764	4.304387093	1.0
19	0	-443.7049866	2.845999956	74.16847229	-0.6081101298	-2.862966061	1.0
[LeftFoot]
17	0	-444.2789917	-29.8219986	-6.87507534	2.3090868	-3.066180944	1.0
18	0	-444.2789917	-29.8219986	11.588521	0.5486909151	-3.607232332	1.0
19	0	-444.2789917	-29.8219986	18.65765762	1.155949116	-5.791457176	1.0
[LeftToeBase]
17	0	-87.28699493	107.1060028	-16.76845741	-0.4886335135	-3.098799229	1.0
18	0	-87.28699493	107.1060028	-6.940808773	-9.406828667e-07	1.518030899e-06	1.0
19	0	-87.28699493	107.1060028	-2.659526825	3.331450387e-07	-3.565550912e-07	1.0
[RightUpLeg]
17	-82.07800293	-67.51699829	-15.99599934	-66.37772369	-7.313720226	-5.973295689	1.0
18	-82.07800293	-67.51699829	-15.99599934	-51.34763336	-9.402448654	-9.133627892	1.0
19	-82.07800293	-67.51699829	-15.99599934	-33.38276672	-12.74646091	-9.171294212	1.0
[RightLeg]
17	0	-443.7049866	2.861999989	71.89750671	-0.9920486212	9.115782738	1.0
18	0	-443.7049866	2.861999989	59.17718887	2.10772872	8.423210144	1.0
19	0	-443.7049866	2.861999989	38.98424911	3.882404566	4.097447395	1.0
[RightFoot]
17	0	-444.2770081	-29.83799934	-16.03886795	-0.5402958989	-2.094321251	1.0
18	0	-444.2770081	-29.83799934	-10.33533096	0.3749608397	0.541770339	1.0
19	0	-444.2770081	-29.83799934	3.554736137	-0.1638106108	5.481997967	1.0
[RightToeBase]
17	0	-87.28699493	107.1060028	-13.8834343	-7.860816368e-06	-2.406702606e-07	1.0
18	0	-87.28699493	107.1060028	-11.70533752	4.607045412e-07	3.556181127e-06	1.0
19	0	-87.28699493	107.1060028	-13.83970547	-0.4259380996	-2.123481512	1.0
[EndOfFile]
